# Wavefront Obj file
# 
# verts: 146 uv-s: 174
mtllib Hat_SurgeonCap2.mtl

g Default

v 0.673968 178.389008 8.295190
v 4.083900 178.630997 8.410730
v 7.076944 177.927673 7.383721
v 8.695154 176.775681 5.339811
v 9.279192 175.296005 2.854440
v 9.207550 174.335007 -0.083176
v 8.360731 172.843002 -2.704750
v 7.986270 171.378998 -5.242680
v 6.232120 169.876007 -6.991170
v 5.399800 168.367004 -9.113740
v 3.207970 166.802994 -10.328700
v 0.038963 165.353195 -10.033700
v 0.071471 165.322647 -10.203501
v -3.458520 166.664001 -9.945830
v -5.697060 168.263000 -8.742300
v -6.596060 169.748001 -6.658540
v -7.857220 171.304993 -4.677100
v -8.815750 172.936005 -2.371790
v -8.852730 174.479004 0.338936
v -8.768469 176.024994 3.160350
v -7.806480 177.281998 5.880660
v -5.807880 177.764008 7.848990
v -2.702540 178.725998 8.456430
v 0.867914 179.863007 -1.510330
v -0.091289 172.936005 -9.710980
v -0.273074 169.130997 -10.888000
v 3.711484 180.220047 3.210352
v 5.873730 177.699005 -3.030140
v -4.067920 177.164001 -5.307150
v -4.745480 179.740997 1.297150
v -4.078800 172.283005 -8.730920
v 4.234010 174.764008 -7.242930
v 4.630660 179.079834 6.080701
v 7.116380 178.642456 3.816940
v 1.617860 180.507996 5.757390
v 5.510964 179.843674 0.073404
v 8.148430 175.725998 -2.370240
v 6.297520 175.223007 -4.919320
v -6.795960 174.800995 -4.611350
v -7.391620 178.610992 3.050430
v -4.877120 179.811005 4.675550
v -6.686880 177.444000 -0.188114
v 6.478030 172.738007 -7.114010
v -0.173530 180.436005 2.221030
v 6.630211 177.626999 1.751326
v 3.626580 179.169006 -2.215870
v 0.585304 178.110001 -5.536230
v 2.746600 179.796005 0.653077
v -4.890120 174.518997 -6.905810
v -3.950960 178.947998 -2.202820
v -7.585560 175.792007 -2.248010
v -1.906130 180.013000 -0.131535
v -2.746300 179.778000 2.882860
v -6.548510 172.337997 -6.468410
v -1.900350 178.811005 -4.228390
v -5.685040 177.343002 -3.266180
v 2.679390 170.632004 -10.271300
v 4.380680 172.524994 -9.059690
v -1.938460 170.492004 -9.315220
v 3.740410 177.201996 -5.446680
v 0.779721 175.643997 -7.895380
v -2.160460 174.630005 -8.206990
v -1.660450 176.860992 -6.738500
v -1.703510 180.279999 5.736960
v 0.351305 163.067993 -9.248910
v 3.631030 161.289001 -6.440280
v 6.454860 162.695999 -3.788380
v 8.951670 164.287003 -1.086100
v 8.008830 165.925995 2.429320
v 7.307365 167.494003 5.933910
v 6.221195 169.192993 9.938680
v 3.669050 170.641006 11.841900
v 0.420328 170.960007 12.280000
v -2.951830 170.852997 12.027500
v -5.713332 169.703003 10.404800
v -7.393102 168.009995 6.610290
v -8.130470 166.266006 3.169490
v -9.133669 164.242004 -0.254528
v -6.876330 162.671005 -3.251860
v -4.173860 161.291000 -6.058990
v -1.203640 163.108002 -8.964960
v 4.784520 165.001007 -7.245420
v 9.053720 167.231995 -3.883020
v -5.181820 164.953003 -6.912300
v -9.204880 167.130005 -3.291410
v -6.687480 173.897995 8.486970
v -9.751730 170.078003 1.006320
v -1.265920 175.274002 11.245800
v 7.129900 173.425003 7.847510
v 10.344500 169.884995 0.443796
v -2.799250 164.919006 -8.174900
v -5.992200 163.311005 -5.267120
v 2.607930 163.294006 -7.662740
v 8.727440 164.893997 -3.016250
v 6.573140 167.156006 -6.492180
v -6.932580 167.078995 -5.985230
v -9.005289 164.744003 -2.606170
v -7.537740 171.059998 7.327710
v -8.208549 173.690994 5.406770
v -8.616690 170.182007 4.251690
v -5.420970 172.296997 10.539200
v -9.665220 169.774994 -1.987550
v -9.952219 167.311005 -0.354763
v 2.654410 174.080002 11.481000
v 2.296310 176.604004 10.015800
v 5.039000 175.009995 9.610280
v 5.795020 172.307007 10.158800
v -4.182200 176.000000 9.486370
v -1.597350 172.852005 12.167800
v 7.742560 170.559006 6.635780
v 9.011471 169.694000 3.632550
v 9.033331 173.145996 5.032680
v 10.077600 167.016998 -0.115809
v 9.642471 169.817993 -2.543110
v -2.753200 162.595001 -7.332110
v -9.153820 172.679993 2.622680
v 9.474911 172.317001 2.152700
v -0.676585 161.184006 -7.560390
v -0.859617 160.699005 -7.722260
v 1.841110 159.242996 -7.901670
v 2.099640 159.772995 -7.756270
v -0.547963 160.992996 -7.817960
v -0.034516 161.115005 -7.892580
v 1.659670 155.106003 -7.378449
v 2.033520 155.389999 -7.715230
v 1.296600 156.447998 -8.362360
v 0.706509 158.688004 -7.975881
v 0.165709 158.470993 -7.850210
v 0.800229 156.179993 -8.220630
v -0.543060 161.100998 -7.817960
v -0.065056 160.878006 -7.892580
v -2.498380 155.126007 -7.378449
v -2.027850 155.117004 -7.715230
v -1.942740 156.401993 -8.362360
v -1.003280 158.520004 -7.975881
v -1.562150 158.684998 -7.850210
v -2.499240 156.498993 -8.220630
v -2.931900 160.063004 -9.219290
v -2.810740 159.522003 -8.971140
v -0.173372 161.121994 -7.513340
v -0.415704 160.873993 -7.406430
v -0.386313 160.667999 -7.380300
v -0.513811 161.121994 -7.649320
v -0.806619 161.020004 -7.564830
v -0.373211 161.098999 -7.914980
v -0.339869 161.076004 -7.914980
# 146 positions

vt 0.462755 0.223978
vt 0.464494 0.187711
vt 0.473401 0.186473
vt 0.461362 0.165628
vt 0.469457 0.161851
vt 0.471965 0.223643
vt 0.649586 0.199979
vt 0.649898 0.236296
vt 0.641076 0.238100
vt 0.654294 0.258140
vt 0.646436 0.262418
vt 0.640415 0.200891
vt 0.527895 0.243653
vt 0.528776 0.196144
vt 0.534107 0.194469
vt 0.537280 0.243350
vt 0.537280 0.195107
vt 0.460980 0.263192
vt 0.466013 0.264702
vt 0.469457 0.264091
vt 0.649146 0.160725
vt 0.644038 0.159521
vt 0.640635 0.160348
vt 0.585793 0.236600
vt 0.586679 0.189123
vt 0.591993 0.187430
vt 0.595177 0.236248
vt 0.595177 0.188041
vt 0.484652 0.596954
vt 0.523511 0.631267
vt 0.470284 0.638278
vt 0.561927 0.742998
vt 0.541545 0.670478
vt 0.596788 0.716639
vt 0.500042 0.685942
vt 0.428706 0.604599
vt 0.526141 0.574358
vt 0.571094 0.609277
vt 0.516478 0.740927
vt 0.585598 0.660453
vt 0.469984 0.558134
vt 0.409889 0.660293
vt 0.367736 0.658854
vt 0.376753 0.612481
vt 0.369832 0.794525
vt 0.338693 0.771014
vt 0.363678 0.740258
vt 0.594645 0.773321
vt 0.330430 0.640478
vt 0.342673 0.690196
vt 0.295042 0.677800
vt 0.252940 0.696263
vt 0.263613 0.641268
vt 0.409328 0.911500
vt 0.347718 0.941762
vt 0.374832 0.883332
vt 0.477376 0.722750
vt 0.438845 0.779378
vt 0.434210 0.713686
vt 0.406994 0.558134
vt 0.315002 0.903564
vt 0.546055 0.837495
vt 0.586946 0.826598
vt 0.568474 0.875715
vt 0.458424 0.678557
vt 0.544262 0.920016
vt 0.510836 0.865742
vt 0.357969 0.840855
vt 0.409039 0.808802
vt 0.404079 0.848107
vt 0.503260 0.822500
vt 0.445088 0.933617
vt 0.507088 0.958104
vt 0.465405 0.990000
vt 0.318819 0.815122
vt 0.299615 0.776119
vt 0.488701 0.903250
vt 0.324657 0.864511
vt 0.424543 0.987556
vt 0.265618 0.810247
vt 0.287055 0.860891
vt 0.308074 0.731465
vt 0.256078 0.754685
vt 0.440188 0.876296
vt 0.399729 0.762747
vt 0.392676 0.971937
vt 0.487418 0.779435
vt 0.536656 0.786194
vt 0.294525 0.595849
vt 0.347742 0.572402
vt 0.389520 0.700209
vt 0.448213 0.828425
vt 0.117409 0.831658
vt 0.111264 0.785833
vt 0.153209 0.803494
vt 0.240214 0.656615
vt 0.230619 0.704282
vt 0.187643 0.676428
vt 0.166239 0.889088
vt 0.122325 0.885289
vt 0.084779 0.957230
vt 0.047503 0.949939
vt 0.089464 0.916398
vt 0.169673 0.467748
vt 0.153479 0.412573
vt 0.195611 0.426712
vt 0.123071 0.966519
vt 0.147908 0.927549
vt 0.079928 0.829372
vt 0.186627 0.847319
vt 0.203385 0.801363
vt 0.044669 0.858821
vt 0.063335 0.796100
vt 0.140713 0.655317
vt 0.095263 0.672619
vt 0.106955 0.603877
vt 0.145576 0.594820
vt 0.116771 0.553957
vt 0.146380 0.531479
vt 0.138249 0.706415
vt 0.179086 0.623937
vt 0.079823 0.732318
vt 0.148165 0.757582
vt 0.186181 0.527700
vt 0.205706 0.577674
vt 0.101751 0.990000
vt 0.057297 0.984562
vt 0.117872 0.499944
vt 0.251649 0.555696
vt 0.239143 0.607275
vt 0.133965 0.115724
vt 0.156511 0.074202
vt 0.178067 0.111786
vt 0.182186 0.724143
vt 0.217449 0.753137
vt 0.060455 0.891294
vt 0.119530 0.229005
vt 0.086237 0.268729
vt 0.079030 0.204543
vt 0.168312 0.198729
vt 0.200076 0.154950
vt 0.218607 0.200741
vt 0.145377 0.346439
vt 0.108587 0.396140
vt 0.098907 0.328253
vt 0.252498 0.499944
vt 0.253855 0.445405
vt 0.214634 0.473134
vt 0.118257 0.447638
vt 0.182653 0.378952
vt 0.159941 0.244859
vt 0.145240 0.295037
vt 0.094523 0.176750
vt 0.097272 0.088288
vt 0.035994 0.087535
vt 0.064279 0.059642
vt 0.132384 0.170835
vt 0.245734 0.347466
vt 0.250971 0.394652
vt 0.027809 0.920034
vt 0.190837 0.280063
vt 0.236301 0.302304
vt 0.193352 0.327066
vt 0.056602 0.145740
vt 0.092160 0.010000
vt 0.129490 0.037572
vt 0.056989 0.017417
vt 0.229314 0.251491
vt 0.010767 0.979621
vt 0.013993 0.979836
vt 0.019446 0.980853
vt 0.012948 0.027492
vt 0.018231 0.029452
vt 0.010000 0.028827
# 174 texture coordinates

vn 0.362278 0.903049 0.230775
vn 0.597315 0.800695 0.045858
vn 0.237671 0.970468 0.041282
vn 0.807052 0.512140 -0.293904
vn 0.796840 0.576952 -0.179368
vn 0.914046 0.368231 -0.170078
vn 0.510779 0.835673 -0.201882
vn 0.092023 0.950704 0.296131
vn 0.629983 0.509901 0.585766
vn 0.912764 0.337699 0.229829
vn 0.638012 0.668005 -0.383028
vn 0.922519 0.380107 -0.066919
vn 0.224134 0.692805 0.685408
vn -0.026801 0.996383 -0.080635
vn -0.140924 0.989367 -0.035977
vn -0.108227 0.957441 0.267571
vn -0.465962 0.671743 -0.575882
vn -0.621582 0.682716 -0.384101
vn -0.426377 0.844545 -0.323955
vn 0.885579 0.265148 -0.381375
vn -0.351507 0.908578 0.225673
vn -0.368632 0.910284 -0.188398
vn -0.690785 0.717371 -0.090530
vn -0.951416 0.307835 -0.006723
vn -0.813415 0.420891 0.401507
vn -0.349732 0.201197 -0.914990
vn -0.630767 -0.012881 -0.775865
vn -0.474268 0.253840 -0.842992
vn 0.207998 0.891733 -0.401932
vn 0.110587 0.827813 -0.549997
vn 0.063239 0.960622 -0.270568
vn 0.006931 0.736953 0.675908
vn -0.800031 0.086708 -0.593659
vn 0.714744 0.297724 -0.632852
vn 0.841523 0.186323 -0.507072
vn 0.780470 0.004932 -0.625174
vn 0.076108 0.983064 -0.166713
vn 0.716511 -0.075429 -0.693486
vn 0.456778 0.375783 -0.806313
vn -0.515109 0.494735 -0.699929
vn -0.212346 0.660702 -0.719987
vn -0.256831 0.527232 -0.809978
vn 0.436602 0.590633 -0.678625
vn -0.121830 0.067525 -0.990251
vn 0.352068 -0.319429 -0.879780
vn 0.237414 -0.392258 -0.888689
vn -0.739073 0.421431 -0.525516
vn -0.803288 0.517874 -0.294169
vn 0.263880 0.192300 -0.945192
vn -0.737260 0.232360 -0.634395
vn -0.296620 -0.361647 -0.883871
vn -0.916465 0.267813 -0.297267
vn -0.837632 0.152210 -0.524600
vn -0.715783 0.640677 -0.277827
vn -0.931450 0.339635 -0.130571
vn -0.077864 0.390030 -0.917504
vn -0.154525 0.889833 -0.429325
vn -0.413532 -0.219235 -0.883701
vn 0.365386 0.695602 -0.618572
vn 0.706650 0.458961 -0.538517
vn -0.519891 0.571667 0.634752
vn -0.171507 0.739002 0.651507
vn -0.141358 0.974806 -0.172546
vn 0.133484 0.610432 -0.780740
vn -0.836599 -0.096768 -0.539201
vn -0.985501 -0.136988 0.100113
vn -0.950070 0.125749 -0.285576
vn -0.931793 0.043917 0.360324
vn -0.780696 -0.228077 -0.581802
vn -0.467539 -0.482182 -0.740883
vn -0.509456 -0.381622 -0.771246
vn -0.602609 -0.447492 -0.660768
vn 0.253521 0.320361 0.912741
vn 0.713977 0.158856 0.681910
vn 0.520125 0.322154 0.791004
vn -0.843778 -0.383369 -0.375590
vn -0.720988 -0.582483 -0.375352
vn -0.918864 -0.380796 0.103357
vn -0.895452 -0.019796 0.444717
vn -0.913697 -0.162034 0.372696
vn -0.792867 -0.034985 0.608389
vn -0.589866 0.239188 0.771263
vn -0.354310 0.075321 0.932090
vn -0.143334 0.248715 0.957912
vn -0.939070 -0.099857 0.328902
vn -0.772832 0.184244 0.607276
vn -0.912423 -0.193155 0.360799
vn -0.988369 0.041843 0.146204
vn -0.137092 0.516320 0.845352
vn -0.445619 0.402927 0.799421
vn -0.577479 -0.320951 -0.750672
vn 0.081164 0.118496 0.989632
vn 0.754996 -0.242740 -0.609145
vn -0.977614 0.081852 0.193832
vn -0.684071 -0.350258 -0.639817
vn 0.970649 -0.238573 0.030374
vn 0.846424 -0.340215 0.409658
vn 0.858168 -0.510104 0.057814
vn 0.938264 0.132282 -0.319627
vn 0.888043 -0.100769 0.448581
vn 0.852006 -0.036957 0.522227
vn 0.894667 -0.261505 0.362196
vn 0.148565 0.564998 0.811607
vn 0.411199 0.143771 0.900136
vn 0.796791 0.063658 0.600892
vn 0.996395 0.031204 0.078885
vn 0.911107 -0.209614 0.354890
vn 0.767630 -0.392259 -0.506831
vn 0.652963 -0.419264 -0.630759
vn 0.523841 -0.371023 -0.766768
vn 0.407210 -0.497198 -0.766143
vn 0.840293 -0.103550 -0.532151
vn -0.562858 -0.373508 -0.737348
vn 0.984393 0.072820 0.160212
vn 0.928794 -0.032340 0.369183
vn 0.702352 -0.451470 -0.550343
vn 0.543361 -0.449575 -0.708972
vn -0.172969 0.094084 -0.980423
vn -0.265450 -0.233632 -0.935389
vn -0.210459 -0.015313 -0.977483
vn -0.392457 -0.491885 -0.777192
vn -0.242057 -0.527762 -0.814172
vn -0.238671 0.070832 -0.968514
vn -0.249096 -0.299183 -0.921109
vn 0.097234 -0.081313 -0.991934
vn -0.248239 -0.444080 -0.860912
vn 0.361667 -0.530120 -0.766922
vn 0.386049 0.012750 -0.922390
vn 0.334159 0.018560 -0.942334
# 129 normals

usemtl cap
f 127/1/118 126/2/119 129/3/120
f 126/2/119 125/4/121 124/5/122
f 124/5/122 129/3/120 126/2/119
f 128/6/123 127/1/118 129/3/120
f 135/7/118 134/8/119 137/9/120
f 134/8/119 133/10/121 132/11/122
f 132/11/122 137/9/120 134/8/119
f 136/12/123 135/7/118 137/9/120
f 120/13/128 119/14/126 144/15/125
f 121/16/129 144/15/125 118/17/124
f 120/13/128 144/15/125 121/16/129
f 123/18/126 127/1/118 145/19/125
f 122/20/124 145/19/125 128/6/123
f 128/6/123 145/19/125 127/1/118
f 131/21/126 135/7/118 146/22/125
f 130/23/124 146/22/125 136/12/123
f 136/12/123 146/22/125 135/7/118
f 138/24/128 143/25/126 141/26/125
f 139/27/129 141/26/125 142/28/124
f 138/24/128 141/26/125 139/27/129
f 33/29/1 34/30/2 27/31/3
f 37/32/4 45/33/5 6/34/6
f 36/35/7 34/30/2 45/33/5
f 33/29/1 27/31/3 35/36/8
f 34/30/2 3/37/9 4/38/10
f 28/39/11 45/33/5 37/32/4
f 5/40/12 45/33/5 4/38/10
f 33/29/1 2/41/13 3/37/9
f 44/42/14 53/43/15 64/44/16
f 35/36/8 2/41/13 33/29/1
f 29/45/17 56/46/18 50/47/19
f 7/48/20 37/32/4 6/34/6
f 41/49/21 30/50/22 40/51/23
f 20/52/24 21/53/25 40/51/23
f 59/54/26 15/55/27 31/56/28
f 46/57/29 47/58/30 24/59/31
f 35/36/8 1/60/32 2/41/13
f 31/56/28 15/55/27 16/61/33
f 43/62/34 8/63/35 9/64/36
f 48/65/37 44/42/14 27/31/3
f 9/64/36 10/66/38 58/67/39
f 49/68/40 63/69/41 62/70/42
f 31/56/28 49/68/40 62/70/42
f 32/71/43 43/62/34 58/67/39
f 26/72/44 11/73/45 12/74/46
f 39/75/47 51/76/48 56/46/18
f 21/53/25 41/49/21 40/51/23
f 57/77/49 11/73/45 26/72/44
f 54/78/50 39/75/47 49/68/40
f 26/72/44 12/74/46 13/79/51
f 18/80/52 39/75/47 17/81/53
f 42/82/54 19/83/55 20/52/24
f 35/36/8 27/31/3 44/42/14
f 3/37/9 34/30/2 33/29/1
f 54/78/50 16/61/33 17/81/53
f 59/54/26 31/56/28 25/84/56
f 55/85/57 47/58/30 63/69/41
f 46/57/29 48/65/37 36/35/7
f 13/79/51 14/86/58 26/72/44
f 32/71/43 60/87/59 38/88/60
f 26/72/44 59/54/26 25/84/56
f 20/52/24 40/51/23 42/82/54
f 28/39/11 37/32/4 38/88/60
f 57/77/49 26/72/44 25/84/56
f 1/60/32 35/36/8 64/44/16
f 46/57/29 36/35/7 28/39/11
f 27/31/3 34/30/2 36/35/7
f 7/48/20 8/63/35 38/88/60
f 45/33/5 28/39/11 36/35/7
f 7/48/20 38/88/60 37/32/4
f 43/62/34 38/88/60 8/63/35
f 51/76/48 19/83/55 42/82/54
f 49/68/40 39/75/47 29/45/17
f 41/49/21 21/53/25 22/89/61
f 40/51/23 30/50/22 42/82/54
f 22/89/61 23/90/62 41/49/21
f 23/90/62 1/60/32 64/44/16
f 42/82/54 30/50/22 50/47/19
f 18/80/52 51/76/48 39/75/47
f 58/67/39 10/66/38 57/77/49
f 38/88/60 43/62/34 32/71/43
f 24/59/31 52/91/63 44/42/14
f 41/49/21 53/43/15 30/50/22
f 4/38/10 45/33/5 34/30/2
f 45/33/5 5/40/12 6/34/6
f 46/57/29 60/87/59 47/58/30
f 48/65/37 46/57/29 24/59/31
f 60/87/59 46/57/29 28/39/11
f 47/58/30 60/87/59 61/92/64
f 44/42/14 48/65/37 24/59/31
f 27/31/3 36/35/7 48/65/37
f 61/92/64 62/70/42 63/69/41
f 54/78/50 31/56/28 16/61/33
f 52/91/63 50/47/19 30/50/22
f 55/85/57 24/59/31 47/58/30
f 19/83/55 51/76/48 18/80/52
f 56/46/18 42/82/54 50/47/19
f 52/91/63 24/59/31 55/85/57
f 53/43/15 52/91/63 30/50/22
f 41/49/21 23/90/62 64/44/16
f 52/91/63 53/43/15 44/42/14
f 39/75/47 54/78/50 17/81/53
f 31/56/28 54/78/50 49/68/40
f 29/45/17 50/47/19 55/85/57
f 55/85/57 50/47/19 52/91/63
f 39/75/47 56/46/18 29/45/17
f 42/82/54 56/46/18 51/76/48
f 25/84/56 61/92/64 58/67/39
f 11/73/45 57/77/49 10/66/38
f 9/64/36 58/67/39 43/62/34
f 25/84/56 58/67/39 57/77/49
f 26/72/44 14/86/58 59/54/26
f 15/55/27 59/54/26 14/86/58
f 38/88/60 60/87/59 28/39/11
f 61/92/64 60/87/59 32/71/43
f 58/67/39 61/92/64 32/71/43
f 25/84/56 31/56/28 62/70/42
f 63/69/41 49/68/40 29/45/17
f 25/84/56 62/70/42 61/92/64
f 55/85/57 63/69/41 29/45/17
f 61/92/64 63/69/41 47/58/30
f 44/42/14 64/44/16 35/36/8
f 41/49/21 64/44/16 53/43/15
f 85/93/65 103/94/66 102/95/67
f 21/96/25 20/97/24 99/98/68
f 85/93/65 16/99/33 96/100/69
f 91/101/70 115/102/71 84/103/72
f 104/104/73 107/105/74 106/106/75
f 14/107/58 84/103/72 15/108/27
f 85/93/65 97/109/76 103/94/66
f 17/110/53 102/95/67 18/111/52
f 79/112/77 78/113/78 97/109/76
f 98/114/79 76/115/80 75/116/81
f 101/117/82 74/118/83 109/119/84
f 99/98/68 100/120/85 98/114/79
f 101/117/82 98/114/79 75/116/81
f 98/114/79 101/117/82 86/121/86
f 78/113/78 77/122/87 103/94/66
f 87/123/88 102/95/67 103/94/66
f 101/117/82 88/124/89 108/125/90
f 91/101/70 13/126/51 81/127/91
f 14/107/58 91/101/70 84/103/72
f 102/95/67 87/123/88 18/111/52
f 74/118/83 101/117/82 75/116/81
f 84/103/72 96/100/69 15/108/27
f 77/122/87 87/123/88 103/94/66
f 74/118/83 73/128/92 109/119/84
f 108/125/90 88/124/89 23/129/62
f 85/93/65 102/95/67 17/110/53
f 100/120/85 77/122/87 76/115/80
f 21/96/25 86/121/86 22/130/61
f 22/130/61 86/121/86 108/125/90
f 95/131/93 10/132/38 9/133/36
f 99/98/68 116/134/94 100/120/85
f 19/135/55 18/111/52 87/123/88
f 87/123/88 116/134/94 19/135/55
f 85/93/65 96/100/69 92/136/95
f 113/137/96 69/138/97 68/139/98
f 114/140/99 8/141/35 7/142/20
f 110/143/100 71/144/101 70/145/102
f 88/124/89 1/146/32 23/129/62
f 2/147/13 105/148/103 106/106/75
f 104/104/73 73/128/92 72/149/104
f 1/146/32 105/148/103 2/147/13
f 104/104/73 88/124/89 109/119/84
f 20/97/24 19/135/55 116/134/94
f 107/105/74 110/143/100 89/150/105
f 77/122/87 100/120/85 87/123/88
f 99/98/68 98/114/79 86/121/86
f 69/138/97 90/151/106 111/152/107
f 21/96/25 99/98/68 86/121/86
f 110/143/100 107/105/74 71/144/101
f 95/131/93 94/153/108 82/154/109
f 103/94/66 97/109/76 78/113/78
f 92/136/95 96/100/69 84/103/72
f 66/155/110 93/156/111 82/154/109
f 9/133/36 83/157/112 95/131/93
f 92/136/95 84/103/72 115/102/71
f 15/108/27 96/100/69 16/99/33
f 113/137/96 83/157/112 114/140/99
f 92/136/95 97/109/76 85/93/65
f 4/158/10 3/159/9 89/150/105
f 106/106/75 3/159/9 2/147/13
f 80/160/113 79/112/77 92/136/95
f 117/161/114 5/162/12 112/163/115
f 4/158/10 89/150/105 112/163/115
f 4/158/10 112/163/115 5/162/12
f 13/126/51 91/101/70 14/107/58
f 67/164/116 94/153/108 68/139/98
f 67/164/116 66/155/110 82/154/109
f 93/156/111 12/165/46 11/166/45
f 10/132/38 82/154/109 11/166/45
f 17/110/53 16/99/33 85/93/65
f 113/137/96 94/153/108 83/157/112
f 9/133/36 8/141/35 83/157/112
f 83/157/112 94/153/108 95/131/93
f 93/156/111 65/167/117 12/165/46
f 82/154/109 94/153/108 67/164/116
f 114/140/99 90/151/106 113/137/96
f 93/156/111 11/166/45 82/154/109
f 92/136/95 79/112/77 97/109/76
f 10/132/38 95/131/93 82/154/109
f 88/124/89 104/104/73 105/148/103
f 76/115/80 98/114/79 100/120/85
f 7/142/20 6/168/6 90/151/106
f 88/124/89 105/148/103 1/146/32
f 106/106/75 105/148/103 104/104/73
f 107/105/74 104/104/73 72/149/104
f 3/159/9 106/106/75 89/150/105
f 71/144/101 107/105/74 72/149/104
f 89/150/105 106/106/75 107/105/74
f 22/130/61 108/125/90 23/129/62
f 101/117/82 108/125/90 86/121/86
f 104/104/73 109/119/84 73/128/92
f 101/117/82 109/119/84 88/124/89
f 70/145/102 111/152/107 110/143/100
f 111/152/107 90/151/106 117/161/114
f 69/138/97 111/152/107 70/145/102
f 90/151/106 6/168/6 117/161/114
f 89/150/105 110/143/100 112/163/115
f 111/152/107 112/163/115 110/143/100
f 113/137/96 68/139/98 94/153/108
f 90/151/106 69/138/97 113/137/96
f 8/141/35 114/140/99 83/157/112
f 7/142/20 90/151/106 114/140/99
f 115/102/71 80/160/113 92/136/95
f 81/127/91 115/102/71 91/101/70
f 100/120/85 116/134/94 87/123/88
f 20/97/24 116/134/94 99/98/68
f 5/162/12 117/161/114 6/168/6
f 111/152/107 117/161/114 112/163/115
f 80/160/113 115/102/71 142/169/124
f 142/169/124 115/102/71 141/170/125
f 115/102/71 143/171/126 141/170/125
f 66/155/110 141/172/125 140/173/127
f 141/172/125 66/155/110 142/174/124
f 93/156/111 140/173/127 65/167/117
f 81/127/91 143/171/126 115/102/71
f 140/173/127 93/156/111 66/155/110

# 239 faces
